<?xml version="1.0" encoding="UTF-8" standalone="no"?>
<!DOCTYPE svg PUBLIC "-//W3C//DTD SVG 1.1//EN" "http://www.w3.org/Graphics/SVG/1.1/DTD/svg11.dtd">
<svg version="1.1" xmlns="http://www.w3.org/2000/svg" xmlns:xlink="http://www.w3.org/1999/xlink" preserveAspectRatio="xMidYMid meet" viewBox="0 0 640 640" width="640" height="640"><defs><path d="M94.77 86.42C94.77 86.42 94.77 86.42 94.77 86.42C94.77 74.04 104.81 64 117.19 64C155.32 64 460.33 64 498.46 64C504.41 64 510.11 66.36 514.31 70.57C518.52 74.77 520.88 80.48 520.88 86.42C520.88 134.69 520.88 520.88 520.88 569.15C520.88 581.53 510.84 591.57 498.46 591.57C460.33 591.57 155.32 591.57 117.19 591.57C104.81 591.57 94.77 581.53 94.77 569.15C94.77 504.78 94.77 343.88 94.77 86.42Z" id="axALIG375"></path><path d="M165.98 141.99L186.29 162.68" id="c4njs8M38"></path><path d="M180.98 162.23L213.44 131.02" id="c5WTsHxEe"></path><path d="M140.11 146.85C140.11 120.02 161.87 98.26 188.71 98.26C188.71 98.26 188.71 98.26 188.71 98.26C201.59 98.26 213.95 103.38 223.07 112.49C232.18 121.61 237.3 133.96 237.3 146.85C237.3 146.85 237.3 146.85 237.3 146.85C237.3 173.69 215.54 195.44 188.71 195.44C188.71 195.44 188.71 195.44 188.71 195.44C161.87 195.44 140.11 173.69 140.11 146.85C140.11 146.85 140.11 146.85 140.11 146.85Z" id="dLwZgy6Fx"></path><path d="M271.65 119.42L468.49 119.42L468.49 174.28L271.65 174.28L271.65 119.42Z" id="azIdesBjA"></path><path d="M138.11 300.36C138.11 273.52 159.87 251.76 186.71 251.76C186.71 251.76 186.71 251.76 186.71 251.76C199.59 251.76 211.95 256.88 221.07 266C230.18 275.11 235.3 287.47 235.3 300.36C235.3 300.36 235.3 300.36 235.3 300.36C235.3 327.19 213.54 348.95 186.71 348.95C186.71 348.95 186.71 348.95 186.71 348.95C159.87 348.95 138.11 327.19 138.11 300.36C138.11 300.36 138.11 300.36 138.11 300.36Z" id="a1wIk1uir8"></path><path d="M271.65 272.93L468.49 272.93L468.49 327.78L271.65 327.78L271.65 272.93Z" id="bxWXXcvLP"></path><path d="M140.11 453.55C140.11 426.71 161.87 404.96 188.71 404.96C188.71 404.96 188.71 404.96 188.71 404.96C201.59 404.96 213.95 410.08 223.07 419.19C232.18 428.3 237.3 440.66 237.3 453.55C237.3 453.55 237.3 453.55 237.3 453.55C237.3 480.38 215.54 502.14 188.71 502.14C188.71 502.14 188.71 502.14 188.71 502.14C161.87 502.14 140.11 480.38 140.11 453.55C140.11 453.55 140.11 453.55 140.11 453.55Z" id="d43CjmOJz"></path><path d="M271.65 426.12L468.49 426.12L468.49 480.98L271.65 480.98L271.65 426.12Z" id="jrJifd2eM"></path><path d="M163.98 141.53L184.29 162.23" id="b3i4FEMjOI"></path><path d="M180.98 162.23L213.44 131.02" id="a1gGJqZizZ"></path></defs><g><g><g><use xlink:href="#axALIG375" opacity="1" fill="#000000" fill-opacity="0"></use><g><use xlink:href="#axALIG375" opacity="1" fill-opacity="0" stroke="#000000" stroke-width="17" stroke-opacity="1"></use></g></g><g><use xlink:href="#c4njs8M38" opacity="1" fill="#000000" fill-opacity="0"></use><g><use xlink:href="#c4njs8M38" opacity="1" fill-opacity="0" stroke="#000000" stroke-width="1" stroke-opacity="0"></use></g></g><g><use xlink:href="#c5WTsHxEe" opacity="1" fill="#000000" fill-opacity="0"></use><g><use xlink:href="#c5WTsHxEe" opacity="1" fill-opacity="0" stroke="#000000" stroke-width="1" stroke-opacity="0"></use></g></g><g><use xlink:href="#dLwZgy6Fx" opacity="1" fill="#000000" fill-opacity="1"></use><g><use xlink:href="#dLwZgy6Fx" opacity="1" fill-opacity="0" stroke="#000000" stroke-width="1" stroke-opacity="0"></use></g></g><g><use xlink:href="#azIdesBjA" opacity="1" fill="#000000" fill-opacity="1"></use><g><use xlink:href="#azIdesBjA" opacity="1" fill-opacity="0" stroke="#000000" stroke-width="1" stroke-opacity="0"></use></g></g><g><use xlink:href="#a1wIk1uir8" opacity="1" fill="#000000" fill-opacity="1"></use><g><use xlink:href="#a1wIk1uir8" opacity="1" fill-opacity="0" stroke="#000000" stroke-width="1" stroke-opacity="0"></use></g></g><g><use xlink:href="#bxWXXcvLP" opacity="1" fill="#000000" fill-opacity="1"></use><g><use xlink:href="#bxWXXcvLP" opacity="1" fill-opacity="0" stroke="#000000" stroke-width="1" stroke-opacity="0"></use></g></g><g><use xlink:href="#d43CjmOJz" opacity="1" fill="#000000" fill-opacity="1"></use><g><use xlink:href="#d43CjmOJz" opacity="1" fill-opacity="0" stroke="#000000" stroke-width="1" stroke-opacity="0"></use></g></g><g><use xlink:href="#jrJifd2eM" opacity="1" fill="#000000" fill-opacity="1"></use><g><use xlink:href="#jrJifd2eM" opacity="1" fill-opacity="0" stroke="#000000" stroke-width="1" stroke-opacity="0"></use></g></g><g><use xlink:href="#b3i4FEMjOI" opacity="1" fill="#000000" fill-opacity="0"></use><g><use xlink:href="#b3i4FEMjOI" opacity="1" fill-opacity="0" stroke="#ffffff" stroke-width="5" stroke-opacity="1"></use></g></g><g><use xlink:href="#a1gGJqZizZ" opacity="1" fill="#000000" fill-opacity="0"></use><g><use xlink:href="#a1gGJqZizZ" opacity="1" fill-opacity="0" stroke="#ffffff" stroke-width="5" stroke-opacity="1"></use></g></g></g></g></svg>